<svg xmlns="http://www.w3.org/2000/svg" viewBox="0 0 32 32">
  <g>
    <path d="M16 16 L16 3 A13 13 0 0 1 25.19 6.81 Z" fill="#ff4d8b"/>
    <path d="M16 16 L25.19 6.81 A13 13 0 0 1 29 16 Z" fill="#ffb084"/>
    <path d="M16 16 L29 16 A13 13 0 0 1 25.19 25.19 Z" fill="#e8b94a"/>
    <path d="M16 16 L25.19 25.19 A13 13 0 0 1 16 29 Z" fill="#a4d4c5"/>
    <path d="M16 16 L16 29 A13 13 0 0 1 6.81 25.19 Z" fill="#b8a4ed"/>
    <path d="M16 16 L6.81 25.19 A13 13 0 0 1 3 16 Z" fill="#ff6b5a"/>
    <path d="M16 16 L3 16 A13 13 0 0 1 6.81 6.81 Z" fill="#1a3a3a"/>
    <path d="M16 16 L6.81 6.81 A13 13 0 0 1 16 3 Z" fill="#ffd24d"/>
  </g>
  <circle cx="16" cy="16" r="3.4" fill="#fffdf8" stroke="#0a0a0a" stroke-width="1"/>
  <path d="M16 1 L19 6 L13 6 Z" fill="#0a0a0a"/>
</svg>
